<svg xmlns="http://www.w3.org/2000/svg" width="500" height="500" viewBox="0 0 500 500"><rect width="500" height="500" fill="#f3f0e9"/><path d="M200 350h100l-12 72h-76z" fill="#b98564"/><ellipse cx="225" cy="310" rx="23" ry="38" transform="rotate(-35 225 310)" fill="#69915a"/><ellipse cx="275" cy="293" rx="23" ry="38" transform="rotate(35 275 293)" fill="#69915a"/><ellipse cx="225" cy="276" rx="23" ry="38" transform="rotate(-35 225 276)" fill="#69915a"/><ellipse cx="275" cy="259" rx="23" ry="38" transform="rotate(35 275 259)" fill="#69915a"/><ellipse cx="225" cy="242" rx="23" ry="38" transform="rotate(-35 225 242)" fill="#69915a"/><ellipse cx="275" cy="225" rx="23" ry="38" transform="rotate(35 275 225)" fill="#69915a"/><ellipse cx="225" cy="208" rx="23" ry="38" transform="rotate(-35 225 208)" fill="#69915a"/><ellipse cx="275" cy="191" rx="23" ry="38" transform="rotate(35 275 191)" fill="#69915a"/><ellipse cx="225" cy="174" rx="23" ry="38" transform="rotate(-35 225 174)" fill="#69915a"/><text x="250" y="477" text-anchor="middle" font-family="sans-serif" font-size="18" fill="#5e675e">35 × 40 cm</text></svg>